<svg width="24" height="25" viewBox="0 0 24 25" fill="none" xmlns="http://www.w3.org/2000/svg">
<path d="M7.96497 6.702C7.77912 6.67495 7.58961 6.71236 7.42797 6.808H7.41397C7.03897 7.028 6.70097 7.305 6.41297 7.631C6.17297 7.908 6.04297 8.188 6.00897 8.458C5.98897 8.618 6.00297 8.78 6.04997 8.933L6.06797 8.943C6.33797 9.736 6.68997 10.499 7.11997 11.217C7.67442 12.2255 8.35673 13.1582 9.14997 13.992L9.17397 14.026L9.21197 14.054L9.23497 14.081L9.26297 14.105C10.0997 14.9006 11.0346 15.5862 12.045 16.145C13.2 16.774 13.901 17.071 14.322 17.195V17.201C14.445 17.239 14.557 17.256 14.67 17.256C15.0285 17.2295 15.3679 17.0838 15.634 16.842C15.959 16.554 16.234 16.215 16.448 15.838V15.831C16.649 15.451 16.581 15.093 16.291 14.85C15.7085 14.341 15.0786 13.889 14.41 13.5C13.962 13.257 13.507 13.404 13.323 13.65L12.93 14.146C12.728 14.392 12.362 14.358 12.362 14.358L12.352 14.364C9.62097 13.667 8.89197 10.902 8.89197 10.902C8.89197 10.902 8.85797 10.526 9.11097 10.334L9.60297 9.938C9.83897 9.746 10.003 9.292 9.74997 8.844C9.36358 8.17476 8.91241 7.54508 8.40297 6.964C8.29186 6.82725 8.13604 6.73411 7.96297 6.701L7.96497 6.702ZM12.58 5.5C12.4474 5.5 12.3202 5.55268 12.2264 5.64645C12.1326 5.74021 12.08 5.86739 12.08 6C12.08 6.13261 12.1326 6.25979 12.2264 6.35355C12.3202 6.44732 12.4474 6.5 12.58 6.5C13.844 6.5 14.894 6.913 15.725 7.705C16.152 8.138 16.485 8.651 16.703 9.213C16.922 9.776 17.022 10.377 16.996 10.979C16.9904 11.1116 17.0377 11.241 17.1276 11.3387C17.2174 11.4364 17.3424 11.4944 17.475 11.5C17.6076 11.5056 17.737 11.4582 17.8347 11.3684C17.9324 11.2786 17.9904 11.1536 17.996 11.021C18.027 10.2805 17.9041 9.54159 17.635 8.851C17.3647 8.15714 16.9549 7.52612 16.431 6.997L16.421 6.987C15.39 6.002 14.086 5.5 12.58 5.5Z" fill="white"/>
<path d="M12.545 7.14394C12.4124 7.14394 12.2852 7.19662 12.1914 7.29039C12.0977 7.38416 12.045 7.51134 12.045 7.64394C12.045 7.77655 12.0977 7.90373 12.1914 7.9975C12.2852 8.09127 12.4124 8.14394 12.545 8.14394H12.562C13.474 8.20894 14.138 8.51294 14.603 9.01194C15.08 9.52594 15.327 10.1649 15.308 10.9549C15.3049 11.0876 15.3547 11.2159 15.4463 11.3119C15.5379 11.4078 15.6639 11.4634 15.7965 11.4664C15.9291 11.4695 16.0575 11.4197 16.1534 11.3281C16.2493 11.2365 16.3049 11.1106 16.308 10.9779C16.332 9.94094 15.998 9.04594 15.336 8.33194V8.32994C14.659 7.60394 13.73 7.21994 12.612 7.14494L12.595 7.14294L12.545 7.14394Z" fill="white"/>
<path d="M12.526 8.81895C12.4591 8.81305 12.3917 8.82069 12.3278 8.84141C12.2639 8.86214 12.2048 8.89553 12.1541 8.93959C12.1034 8.98365 12.0621 9.03747 12.0326 9.09785C12.0032 9.15823 11.9862 9.22392 11.9827 9.291C11.9792 9.35808 11.9893 9.42518 12.0123 9.48829C12.0353 9.5514 12.0708 9.60923 12.1167 9.65832C12.1625 9.70741 12.2178 9.74675 12.2792 9.77401C12.3406 9.80127 12.4068 9.81587 12.474 9.81695C12.892 9.83895 13.159 9.96495 13.327 10.134C13.496 10.304 13.622 10.577 13.645 11.004C13.6463 11.0711 13.661 11.1372 13.6884 11.1985C13.7157 11.2598 13.7551 11.3149 13.8043 11.3606C13.8534 11.4064 13.9112 11.4417 13.9743 11.4646C14.0374 11.4875 14.1044 11.4975 14.1714 11.494C14.2384 11.4904 14.3041 11.4734 14.3644 11.4439C14.4247 11.4145 14.4784 11.3732 14.5224 11.3225C14.5664 11.2718 14.5998 11.2128 14.6205 11.149C14.6412 11.0852 14.6489 11.0178 14.643 10.951C14.611 10.351 14.423 9.82095 14.038 9.43095C13.651 9.04095 13.124 8.85095 12.526 8.81895Z" fill="white"/>
<path fill-rule="evenodd" clip-rule="evenodd" d="M7.06699 2.88406C10.2491 2.17276 13.5489 2.17276 16.731 2.88406L17.07 2.95906C18.0002 3.16701 18.8545 3.62879 19.5381 4.29308C20.2216 4.95738 20.7076 5.79818 20.942 6.72206C21.7497 9.90495 21.7497 13.2392 20.942 16.4221C20.7076 17.3459 20.2216 18.1867 19.5381 18.851C18.8545 19.5153 18.0002 19.9771 17.07 20.1851L16.73 20.2601C14.737 20.7057 12.692 20.8737 10.653 20.7591L7.99999 23.1331C7.89997 23.2226 7.77775 23.2837 7.64608 23.3099C7.51441 23.3361 7.37812 23.3265 7.25144 23.282C7.12476 23.2376 7.01233 23.1599 6.92588 23.0572C6.83944 22.9545 6.78215 22.8305 6.75999 22.6981L6.32099 20.0761C5.47918 19.8141 4.7186 19.3407 4.11196 18.7009C3.50532 18.0612 3.07289 17.2766 2.85599 16.4221C2.04825 13.2392 2.04825 9.90494 2.85599 6.72206C3.09041 5.79818 3.57639 4.95738 4.25993 4.29308C4.94346 3.62879 5.7978 3.16701 6.72799 2.95906L7.06699 2.88406ZM16.404 4.34706C13.4373 3.68386 10.3607 3.68386 7.39399 4.34706L7.05399 4.42306C6.39471 4.57071 5.78926 4.89821 5.30487 5.36919C4.82048 5.84016 4.4761 6.43618 4.30999 7.09106C3.56371 10.0318 3.56371 13.1123 4.30999 16.0531C4.47618 16.7081 4.8207 17.3042 5.30528 17.7752C5.78986 18.2461 6.39553 18.5736 7.05499 18.7211L7.14499 18.7411C7.29059 18.7736 7.42316 18.8489 7.52577 18.9572C7.62837 19.0655 7.69634 19.2019 7.72099 19.3491L8.01499 21.1071L9.88699 19.4321C9.96175 19.365 10.0492 19.3136 10.1442 19.2809C10.2392 19.2483 10.3398 19.2351 10.44 19.2421C12.4391 19.3839 14.4481 19.234 16.404 18.7971L16.743 18.7211C17.4025 18.5736 18.0081 18.2461 18.4927 17.7752C18.9773 17.3042 19.3218 16.7081 19.488 16.0531C20.234 13.1131 20.234 10.0321 19.488 7.09106C19.3218 6.43606 18.9773 5.83995 18.4927 5.36896C18.0081 4.89798 17.4025 4.57055 16.743 4.42306L16.404 4.34706Z" fill="white"/>
</svg>
