<svg width="24" height="25" viewBox="0 0 24 25" fill="none" xmlns="http://www.w3.org/2000/svg">
<path fill-rule="evenodd" clip-rule="evenodd" d="M18.403 6.13303C17.5714 5.29591 16.5819 4.63214 15.4919 4.18018C14.4019 3.72821 13.233 3.49703 12.053 3.50003C7.105 3.50003 3.077 7.52703 3.075 12.477C3.075 14.059 3.488 15.603 4.273 16.965L3 21.616L7.759 20.367C9.07539 21.0836 10.5502 21.4594 12.049 21.46H12.053C17 21.46 21.028 17.433 21.03 12.483C21.0334 11.3035 20.803 10.135 20.3521 9.04509C19.9012 7.95516 19.2387 6.9654 18.403 6.13303ZM12.053 19.945H12.05C10.7135 19.9452 9.40163 19.5856 8.252 18.904L7.98 18.742L5.156 19.483L5.909 16.73L5.732 16.448C4.98479 15.2585 4.58923 13.8818 4.591 12.477C4.593 8.36303 7.94 5.01603 12.056 5.01603C13.0363 5.01385 14.0072 5.20611 14.9127 5.58168C15.8181 5.95725 16.6401 6.50867 17.331 7.20403C18.0256 7.89607 18.5762 8.71892 18.9509 9.62503C19.3256 10.5311 19.517 11.5025 19.514 12.483C19.512 16.597 16.165 19.945 12.053 19.945ZM16.146 14.356C15.921 14.243 14.819 13.701 14.613 13.626C14.408 13.551 14.259 13.514 14.109 13.738C13.959 13.962 13.529 14.467 13.398 14.617C13.267 14.767 13.136 14.785 12.912 14.673C12.688 14.561 11.965 14.324 11.108 13.56C10.441 12.965 9.991 12.231 9.86 12.006C9.729 11.781 9.846 11.66 9.959 11.548C10.06 11.448 10.183 11.286 10.295 11.155C10.407 11.024 10.444 10.931 10.519 10.781C10.594 10.631 10.557 10.5 10.5 10.388C10.444 10.275 9.995 9.17103 9.808 8.72203C9.627 8.28703 9.442 8.34503 9.304 8.33903C9.16108 8.33318 9.01804 8.33052 8.875 8.33103C8.76126 8.33393 8.64934 8.36029 8.54626 8.40848C8.44318 8.45666 8.35117 8.52562 8.276 8.61103C8.07 8.83603 7.491 9.37803 7.491 10.482C7.491 11.586 8.295 12.653 8.407 12.803C8.519 12.953 9.989 15.218 12.239 16.19C12.775 16.421 13.193 16.559 13.518 16.663C14.055 16.834 14.544 16.809 14.931 16.752C15.362 16.688 16.258 16.21 16.445 15.686C16.632 15.162 16.632 14.713 16.576 14.619C16.52 14.525 16.369 14.468 16.146 14.356Z" fill="white"/>
</svg>
